<!-- Favicon Piña - Versión mejorada -->
<svg xmlns="http://www.w3.org/2000/svg" viewBox="0 0 64 64">
  <!-- Cuerpo principal de la piña -->
  <path d="M32,22 C24,22 19,30 19,42 C19,52 25,58 32,58 C39,58 45,52 45,42 C45,30 40,22 32,22 Z" fill="#ffeb3b" stroke="#e6a700" stroke-width="1.5"/>
  
  <!-- Patrón escamado de la piña -->
  <path d="M23,26 C26,24 29,24 32,26 C35,24 38,24 41,26 C38,28 35,28 32,26 C29,28 26,28 23,26 Z" fill="#e6a700"/>
  <path d="M23,32 C26,30 29,30 32,32 C35,30 38,30 41,32 C38,34 35,34 32,32 C29,34 26,34 23,32 Z" fill="#e6a700"/>
  <path d="M23,38 C26,36 29,36 32,38 C35,36 38,36 41,38 C38,40 35,40 32,38 C29,40 26,40 23,38 Z" fill="#e6a700"/>
  <path d="M23,44 C26,42 29,42 32,44 C35,42 38,42 41,44 C38,46 35,46 32,44 C29,46 26,46 23,44 Z" fill="#e6a700"/>
  <path d="M23,50 C26,48 29,48 32,50 C35,48 38,48 41,50 C38,52 35,52 32,50 C29,52 26,52 23,50 Z" fill="#e6a700"/>
  
  <!-- Corona/hojas de la piña -->
  <path d="M32,6 C32,14 32,18 32,22" stroke="#43a047" stroke-width="3" stroke-linecap="round"/>
  <path d="M32,8 C28,12 26,16 27,20" stroke="#43a047" stroke-width="2" stroke-linecap="round"/>
  <path d="M32,8 C36,12 38,16 37,20" stroke="#43a047" stroke-width="2" stroke-linecap="round"/>
  <path d="M32,10 C26,12 24,14 25,18" stroke="#43a047" stroke-width="1.5" stroke-linecap="round"/>
  <path d="M32,10 C38,12 40,14 39,18" stroke="#43a047" stroke-width="1.5" stroke-linecap="round"/>
  
  <!-- Sombras suaves para dar dimensión -->
  <path d="M19,42 C19,52 25,58 32,58" stroke="#e6a700" stroke-width="1" fill="none" opacity="0.5"/>
  
  <!-- Base de la corona -->
  <circle cx="32" cy="22" r="3" fill="#4caf50"/>
</svg>
